<?xml version="1.0" encoding="UTF-8" standalone="no"?>
<svg
   version="1.1"
   width="676"
   height="645.52893"
   style="clip-rule:evenodd;fill-rule:evenodd;image-rendering:optimizeQuality;shape-rendering:geometricPrecision;text-rendering:geometricPrecision"
   id="svg4"
   sodipodi:docname="logo.svg"
   inkscape:version="1.3.2 (091e20e, 2023-11-25, custom)"
   xmlns:inkscape="http://www.inkscape.org/namespaces/inkscape"
   xmlns:sodipodi="http://sodipodi.sourceforge.net/DTD/sodipodi-0.dtd"
   xmlns="http://www.w3.org/2000/svg"
   xmlns:svg="http://www.w3.org/2000/svg">
  <defs
     id="defs4" />
  <sodipodi:namedview
     id="namedview4"
     pagecolor="#505050"
     bordercolor="#ffffff"
     borderopacity="1"
     inkscape:showpageshadow="0"
     inkscape:pageopacity="0"
     inkscape:pagecheckerboard="1"
     inkscape:deskcolor="#505050"
     inkscape:zoom="1.2534776"
     inkscape:cx="339.05672"
     inkscape:cy="324.29778"
     inkscape:window-width="1920"
     inkscape:window-height="1046"
     inkscape:window-x="-11"
     inkscape:window-y="-11"
     inkscape:window-maximized="1"
     inkscape:current-layer="svg4" />
  <g
     id="g5"
     transform="translate(0.5,0.5)">
    <g
       id="g1">
      <path
         style="opacity:0.991"
         fill="#71aabf"
         d="m 341.5,-0.5 c 2.667,0 5.333,0 8,0 25.434,2.63793 45.267,14.6379 59.5,36 13.222,22.664 21.889,46.9973 26,73 2.608,12.918 4.275,25.918 5,39 -2.667,2.667 -5.333,2.667 -8,0 -6.174,-22.19 -14.507,-43.523 -25,-64 -4.655,-8.6634 -10.822,-16.1634 -18.5,-22.5 -13.559,-7.4895 -25.059,-4.9895 -34.5,7.5 -8.691,13.7358 -14.024,28.7358 -16,45 -1.439,9.621 -2.439,19.288 -3,29 -0.667,22.333 -0.667,44.667 0,67 1.336,23.358 2.669,46.691 4,70 -1.198,4.246 -3.698,7.413 -7.5,9.5 -27.333,18.667 -54.667,37.333 -82,56 -9.952,4.683 -17.452,2.183 -22.5,-7.5 -8.399,-73.946 -3.399,-146.946 15,-219 8.373,-30.4991 21.706,-58.4991 40,-84 14.994,-20.074 34.827,-31.74067 59.5,-35 z"
         id="path1" />
    </g>
    <g
       id="g2">
      <path
         style="opacity:0.992"
         fill="#d33e26"
         d="m -0.5,351.5 c 0,-6.667 0,-13.333 0,-20 3.50345,-18.342 11.3368,-34.676 23.5,-49 38.7064,-40.285 84.873,-68.785 138.5,-85.5 3.333,-0.667 6.667,-0.667 10,0 3.389,1.972 4.722,4.972 4,9 -2.666,32.351 -2.666,64.685 0,97 -0.754,5.083 -3.42,8.75 -8,11 -18.753,7.117 -35.253,17.617 -49.5,31.5 -10.922,14.072 -11.255,28.405 -1,43 13.33,13.754 29.164,23.588 47.5,29.5 40.998,12.81 82.998,19.476 126,20 2.833,3.663 2.5,6.996 -1,10 -51.205,3.172 -102.205,1.172 -153,-6 -32.408,-4.248 -63.0748,-13.914 -92,-29 -24.5155,-13.662 -39.51553,-34.162 -45,-61.5 z"
         id="path2" />
    </g>
    <g
       id="g3">
      <path
         style="opacity:0.991"
         fill="#f16433"
         d="m 675.5,299.5 c 0,3.333 0,6.667 0,10 -3.031,22.729 -12.531,42.396 -28.5,59 -37.56,36.545 -81.394,63.045 -131.5,79.5 -5.564,2.49 -10.73,1.99 -15.5,-1.5 -0.273,-1.601 -0.773,-3.101 -1.5,-4.5 0.805,-4.749 1.305,-9.582 1.5,-14.5 0.529,-29.344 0.529,-58.677 0,-88 0.792,-2.087 1.959,-3.921 3.5,-5.5 15.61,-6.801 30.276,-15.134 44,-25 24,-20.667 24,-41.333 0,-62 -17.12,-11.604 -35.787,-19.937 -56,-25 -34.783,-8.754 -70.116,-13.421 -106,-14 -4.829,-2.837 -5.163,-6.171 -1,-10 53.929,-3.69 107.596,-1.357 161,7 29.937,4.565 58.27,13.898 85,28 25.996,14.812 40.996,36.979 45,66.5 z"
         id="path3" />
    </g>
    <g
       id="g4">
      <path
         style="opacity:0.988"
         fill="#0f6fb8"
         d="m 429.5,298.5 c 7.688,-1.237 13.521,1.429 17.5,8 7.695,65.409 5.028,130.409 -8,195 -7.087,33.603 -19.087,65.27 -36,95 -11.708,19.709 -27.875,34.542 -48.5,44.5 -40.053,11.205 -70.886,-0.962 -92.5,-36.5 -16.615,-33.74 -25.615,-69.406 -27,-107 2.244,-2.494 4.577,-2.494 7,0 7.269,25.197 17.269,49.197 30,72 19.913,27.344 38.246,26.344 55,-3 6.935,-17.673 10.935,-36.007 12,-55 2.207,-46.074 1.04,-92.074 -3.5,-138 -0.037,-3.756 0.463,-7.422 1.5,-11 30.324,-22.231 61.157,-43.564 92.5,-64 z"
         id="path4" />
    </g>
  </g>
</svg>
