<?xml version="1.0" encoding="UTF-8" standalone="no"?>
<svg
   shape-rendering="geometricPrecision"
   image-rendering="optimizeQuality"
   fill-rule="evenodd"
   fill="#192d38"
   version="1.1"
   id="svg13"
   sodipodi:docname="atkinsrealis_logo.svg"
   width="4096"
   height="553.69006"
   inkscape:version="1.3.2 (091e20e, 2023-11-25, custom)"
   xmlns:inkscape="http://www.inkscape.org/namespaces/inkscape"
   xmlns:sodipodi="http://sodipodi.sourceforge.net/DTD/sodipodi-0.dtd"
   xmlns="http://www.w3.org/2000/svg"
   xmlns:svg="http://www.w3.org/2000/svg">
  <defs
     id="defs13" />
  <sodipodi:namedview
     id="namedview13"
     pagecolor="#505050"
     bordercolor="#ffffff"
     borderopacity="1"
     inkscape:showpageshadow="0"
     inkscape:pageopacity="0"
     inkscape:pagecheckerboard="1"
     inkscape:deskcolor="#505050"
     inkscape:zoom="0.12229167"
     inkscape:cx="2297.7853"
     inkscape:cy="282.11244"
     inkscape:window-width="1920"
     inkscape:window-height="1046"
     inkscape:window-x="-11"
     inkscape:window-y="-11"
     inkscape:window-maximized="1"
     inkscape:current-layer="svg13" />
  <g
     id="g13"
     transform="translate(0.5,0.5)">
    <path
       d="m 262.5,-0.5 h 148 v 137 h 135 c 2.693,-58.149 30.027,-99.982 82,-125.5 14.61,-5.902 29.61,-9.735 45,-11.5 h 147 v 138 h -273 v 409 c -55.121,-1.335 -95.954,-26.002 -122.5,-74 -7.462,-15.179 -12.128,-31.179 -14,-48 -7.714,51.973 -35.214,89.14 -82.5,111.5 -12.235,4.967 -24.902,8.3 -38,10 l -153,0.5 v -136 h -137 v -148 c 6.899,-55.964 36.233,-95.131 88,-117.5 15.793,-5.992 32.126,-8.825 49,-8.5 0.994,-47.159 20.327,-84.659 58,-112.5 20.695,-13.841 43.362,-22.008 68,-24.5 z m -125,138 h 272 v 272 h -272 z"
       opacity="0.991"
       id="path1" />
    <path
       d="m 975.5,136.5 100,0.5 c 9.42,2.099 16.59,7.266 21.5,15.5 3.25,6.089 5.92,12.422 8,19 l 126.5,375 a 1681.89,1681.89 0 0 1 -82,-1 l -36,-114.5 a 7917.29,7917.29 0 0 0 -178,0 l -36,114.5 c -26.994,1.167 -53.994,1.333 -81,0.5 L 949,165.5 c 3.008,-10.54 8.841,-19.04 17.5,-25.5 3.071,-1.296 6.071,-2.462 9,-3.5 z m 48,7 c 1,-0.03 1.66,0.47 2,1.5 l 69,224.5 h -140 z"
       opacity="0.987"
       id="path2" />
    <path
       d="m 1457.5,136.5 h 76 l 0.5,245 126.5,-138.5 a 1121.07,1121.07 0 0 1 82,0.5 l -121.5,131 c -3.39,5.476 -2.72,10.476 2,15 L 1744.5,546 c -29.33,0.667 -58.67,0.667 -88,0 L 1534,385.5 l -0.5,161 h -76 z"
       opacity="0.988"
       id="path3" />
    <path
       d="m 1772.5,136.5 h 78 v 75 h -78 z"
       id="path4" />
    <path
       d="m 2540.5,136.5 221,0.5 c 27.23,1.518 51.57,10.518 73,27 20.82,19.94 30.82,44.44 30,73.5 0.15,33.208 -13.85,58.374 -42,75.5 -10.82,6.41 -22.15,11.743 -34,16 8.51,2.845 15.68,7.679 21.5,14.5 a 129.45,129.45 0 0 1 13,23 l 71.5,179 c -25.66,1.166 -51.33,1.333 -77,0.5 l -63,-158.5 c -44,-1.167 -88,-1.333 -132,-0.5 -3.05,0.606 -5.55,2.106 -7.5,4.5 a 4043.2,4043.2 0 0 0 -1.5,155 h -73 z m 73,60 162,0.5 c 4.94,0.272 8.1,2.772 9.5,7.5 l 0.5,124 -9,-1.5 -154,-1 c -4.42,-0.758 -7.26,-3.258 -8.5,-7.5 z"
       opacity="0.99"
       id="path5" />
    <path
       d="m 3038.5,136.5 85,0.5 -48,71 a 899.8,899.8 0 0 1 -60,0 2316.77,2316.77 0 0 0 23,-71.5 z"
       opacity="0.982"
       id="path6" />
    <path
       d="m 3569.5,136.5 h 77 v 410 h -77 z"
       opacity="0.981"
       id="path7" />
    <path
       d="m 3702.5,136.5 h 79 v 75 h -79 z"
       opacity="0.987"
       id="path8" />
    <path
       d="m 1264.5,153.5 h 76 v 89 h 73 v 53 h -73 a 6204.16,6204.16 0 0 0 1.5,192 c 1.54,1.878 3.38,3.378 5.5,4.5 22,0.5 44,0.667 66,0.5 v 54 c -29.37,0.442 -58.7,-0.058 -88,-1.5 -37.13,-7.797 -57.29,-30.63 -60.5,-68.5 l -0.5,-181 h -56 v -53 a 1200.03,1200.03 0 0 0 49,-0.5 c 2.12,-1.122 3.96,-2.622 5.5,-4.5 1.48,-27.912 1.98,-55.912 1.5,-84 z"
       opacity="0.986"
       id="path9" />
    <path
       d="m 2339.5,236.5 c 30.33,-1.835 60,1.665 89,10.5 40.89,16.097 62.22,46.263 64,90.5 h -72 c 0.17,-12.338 0,-24.671 -0.5,-37 -0.76,-4.422 -3.26,-7.255 -7.5,-8.5 a 3023.74,3023.74 0 0 0 -110,0 c -3.5,0.833 -5.67,3 -6.5,6.5 -0.67,10.333 -0.67,20.667 0,31 2.3,11.764 9.14,19.598 20.5,23.5 l 115,15 c 24.08,5.098 42.58,17.932 55.5,38.5 8.87,19.065 11.87,39.065 9,60 -4.65,37.136 -24.48,62.303 -59.5,75.5 -15.57,5.38 -31.57,8.714 -48,10 -27.57,1.88 -54.91,0.214 -82,-5 -28.07,-5.601 -50.91,-19.435 -68.5,-41.5 -10.22,-16.152 -15.72,-33.819 -16.5,-53 a 1444.7,1444.7 0 0 1 76,-1 c -0.17,13.004 0,26.004 0.5,39 1.12,2.124 2.62,3.957 4.5,5.5 a 1742.38,1742.38 0 0 0 117,1 c 5.38,-0.376 8.54,-3.21 9.5,-8.5 0.84,-12.372 0.51,-24.705 -1,-37 -4.22,-13.544 -13.38,-21.377 -27.5,-23.5 l -97,-10 c -54.31,-9.728 -79.47,-42.228 -75.5,-97.5 3.88,-34.263 21.72,-58.097 53.5,-71.5 18.87,-6.938 38.2,-11.105 58,-12.5 z m 693,0 c 31.01,-1.976 61.01,2.524 90,13.5 37.95,17.295 61.11,46.462 69.5,87.5 a 357.26,357.26 0 0 1 5.5,77 h -223 l 0.5,73 c 0.5,5.833 3.67,9 9.5,9.5 a 2114.81,2114.81 0 0 0 129,-1 c 3.16,-1.48 5,-3.98 5.5,-7.5 0.5,-14.329 0.67,-28.663 0.5,-43 h 76 c -9.29,44.407 -34.62,75.907 -76,94.5 -32.32,12.377 -65.65,16.043 -100,11 -75.27,-10.601 -116.43,-53.767 -123.5,-129.5 -3.73,-35.157 -0.07,-69.49 11,-103 15.52,-38.509 43.35,-63.343 83.5,-74.5 13.93,-3.709 27.93,-6.209 42,-7.5 z m -51,55 c 45.08,-0.49 90.08,0.01 135,1.5 2.31,1.637 3.81,3.804 4.5,6.5 0.5,23.331 0.67,46.664 0.5,70 h -147 l 0.5,-69 c 0.87,-4.025 3.04,-7.025 6.5,-9 z"
       opacity="0.984"
       id="path10" />
    <path
       d="m 3364.5,236.5 c 25.31,-1.197 50.31,0.97 75,6.5 23.93,5.704 43.76,17.87 59.5,36.5 10.89,15.569 16.23,32.902 16,52 l 0.5,215 h -77 a 1007.64,1007.64 0 0 0 -0.5,-45 c -11.7,24.109 -30.54,39.609 -56.5,46.5 -32.48,7.348 -64.48,5.681 -96,-5 -37.51,-15.858 -56.18,-44.192 -56,-85 -1.2,-36.63 14.47,-62.963 47,-79 14.74,-5.948 30.08,-8.948 46,-9 l 116,-0.5 -0.5,-71 c -0.83,-3.5 -3,-5.667 -6.5,-6.5 a 3420.79,3420.79 0 0 0 -117,0 15.31,15.31 0 0 0 -6.5,6.5 877.8,877.8 0 0 0 -0.5,42 h -70 c 2.93,-45.106 25.6,-75.606 68,-91.5 19.26,-6.759 38.92,-10.926 59,-12.5 z m -57,178 h 131 v 83 c -40.33,0.167 -80.67,0 -121,-0.5 -4.96,-0.302 -8.13,-2.802 -9.5,-7.5 z"
       opacity="0.983"
       id="path11" />
    <path
       d="m 4095.5,440.5 v 22 c -4.26,42.939 -27.26,70.439 -69,82.5 -28.92,7.129 -58.25,9.463 -88,7 -27.09,-1.438 -52.43,-8.772 -76,-22 -27.47,-18.755 -41.47,-44.922 -42,-78.5 h 75 c -0.17,12.338 0,24.671 0.5,37 0.96,5.29 4.12,8.124 9.5,8.5 a 1742.38,1742.38 0 0 0 117,-1 c 2.23,-1.227 3.73,-3.061 4.5,-5.5 a 340.8,340.8 0 0 0 0,-37 c -3.48,-15.146 -12.98,-23.646 -28.5,-25.5 l -96,-10 c -42.27,-5.277 -67.44,-28.777 -75.5,-70.5 -5.17,-59.157 21.33,-94.657 79.5,-106.5 34.73,-6.241 69.4,-5.908 104,1 49.74,11.916 76.74,43.416 81,94.5 -24.32,1 -48.66,1.333 -73,1 0.17,-13.004 0,-26.004 -0.5,-39 -0.83,-3.5 -3,-5.667 -6.5,-6.5 a 3023.74,3023.74 0 0 0 -110,0 c -3.07,0.739 -5.24,2.572 -6.5,5.5 a 95.25,95.25 0 0 0 0,33 c 3.16,12.491 10.99,20.325 23.5,23.5 l 102,12 c 25.23,3.357 45.73,14.857 61.5,34.5 7.63,12.394 12.13,25.727 13.5,40 z"
       opacity="0.984"
       id="path12" />
    <path
       d="m 2062.5,237.5 c 23.33,-2.189 46,0.644 68,8.5 29.08,12.751 45.58,34.917 49.5,66.5 l 0.5,234 h -76 l -1.5,-243 a 14.08,14.08 0 0 0 -6.5,-4.5 l -116,-0.5 v 248 h -76 v -304 h 76 a 1345.45,1345.45 0 0 0 0.5,52 c 16.7,-33.934 43.86,-52.934 81.5,-57 z m -289,5 h 76 v 304 h -76 z m 1930,0 h 76 v 304 h -76 z"
       opacity="0.992"
       id="path13" />
  </g>
</svg>
