<?xml version="1.0" encoding="UTF-8" standalone="no"?>
<!-- Generator: Adobe Illustrator 13.0.0, SVG Export Plug-In . SVG Version: 6.00 Build 14948)  -->

<svg
   version="1.1"
   id="Logo_with_Clear_Space"
   x="0px"
   y="0px"
   width="206.088"
   height="44.668999"
   viewBox="30.189 372.742 206.088 44.668999"
   enable-background="new 30.189 372.742 206.088 44.668"
   xml:space="preserve"
   sodipodi:docname="bny_mellon_logo.svg"
   inkscape:version="1.3.2 (091e20e, 2023-11-25, custom)"
   xmlns:inkscape="http://www.inkscape.org/namespaces/inkscape"
   xmlns:sodipodi="http://sodipodi.sourceforge.net/DTD/sodipodi-0.dtd"
   xmlns="http://www.w3.org/2000/svg"
   xmlns:svg="http://www.w3.org/2000/svg"><defs
   id="defs3" /><sodipodi:namedview
   id="namedview3"
   pagecolor="#505050"
   bordercolor="#ffffff"
   borderopacity="1"
   inkscape:showpageshadow="0"
   inkscape:pageopacity="0"
   inkscape:pagecheckerboard="1"
   inkscape:deskcolor="#505050"
   inkscape:zoom="4.0281015"
   inkscape:cx="113.2047"
   inkscape:cy="27.184022"
   inkscape:window-width="1920"
   inkscape:window-height="1046"
   inkscape:window-x="-11"
   inkscape:window-y="-11"
   inkscape:window-maximized="1"
   inkscape:current-layer="Logo_with_Clear_Space" />
<g
   id="g3"
   transform="translate(0,0.001)">
	<polygon
   fill="#2b9cae"
   points="30.189,412.275 42.717,395.23 30.189,378.184 49.699,385.578 74.549,395.23 49.699,404.677 "
   id="polygon1" />
	<path
   fill="#04243c"
   d="m 81.429,372.947 h 32.141 c 12.425,0 15.505,5.34 15.505,10.269 v 0.616 c 0,5.339 -4.724,8.728 -8.01,9.036 4.826,0.616 10.166,4.313 10.166,11.192 v 0.616 c 0,5.956 -3.594,12.527 -17.457,12.527 H 81.429 v -44.462 0 z m 13.554,9.242 v 7.701 h 15.197 c 3.594,0 4.723,-1.746 4.723,-3.799 v 0 c 0,-2.054 -1.232,-3.902 -4.723,-3.902 z m 0,16.532 v 8.421 h 16.019 c 4.21,0 5.34,-2.156 5.34,-4.416 v 0 c 0,-2.156 -1.232,-4.005 -5.34,-4.005 z"
   id="path1" />
	<path
   fill="#04243c"
   d="m 151.665,372.947 18.175,24.747 v -24.747 h 13.554 v 44.463 h -16.019 l -17.97,-24.439 V 417.41 H 135.85 v -44.463 z"
   id="path2" />
	<path
   fill="#04243c"
   d="m 202.597,398.824 -19.1,-25.877 h 16.84 l 9.55,13.041 9.55,-13.041 h 16.84 l -19.1,25.877 v 18.482 h -14.684 v -18.482 z"
   id="path3" />
</g>
</svg>
