<?xml version="1.0" encoding="UTF-8" standalone="no"?>
<svg
   viewBox="0 0 296 190.85832"
   version="1.1"
   id="svg7"
   sodipodi:docname="citi_logo.svg"
   width="296"
   height="190.85832"
   inkscape:version="1.3.2 (091e20e, 2023-11-25, custom)"
   xmlns:inkscape="http://www.inkscape.org/namespaces/inkscape"
   xmlns:sodipodi="http://sodipodi.sourceforge.net/DTD/sodipodi-0.dtd"
   xmlns="http://www.w3.org/2000/svg"
   xmlns:svg="http://www.w3.org/2000/svg">
  <defs
     id="defs7" />
  <sodipodi:namedview
     id="namedview7"
     pagecolor="#505050"
     bordercolor="#ffffff"
     borderopacity="1"
     inkscape:showpageshadow="0"
     inkscape:pageopacity="0"
     inkscape:pagecheckerboard="1"
     inkscape:deskcolor="#505050"
     inkscape:zoom="3.9133333"
     inkscape:cx="147.95571"
     inkscape:cy="95.44293"
     inkscape:window-width="1920"
     inkscape:window-height="1046"
     inkscape:window-x="-11"
     inkscape:window-y="-11"
     inkscape:window-maximized="1"
     inkscape:current-layer="svg7" />
  <g
     transform="translate(-111.82969,-565.50386)"
     id="g7">
    <g
       transform="matrix(8.5031131,0,0,-8.5031131,-3071.7606,1310.7362)"
       id="g6">
      <g
         clip-path="url(#clipPath38)"
         id="g2">
        <g
           transform="translate(385.01691,69.543594)"
           id="g1">
          <path
             d="m 0,0 -0.064,-0.062 c -1.005,-1.024 -2.168,-1.565 -3.366,-1.565 -2.502,0 -4.317,1.877 -4.317,4.466 0,2.585 1.815,4.465 4.317,4.465 1.198,0 2.361,-0.544 3.366,-1.572 L 0,5.671 1.609,7.617 1.566,7.669 c -1.338,1.581 -2.944,2.35 -4.918,2.35 -1.979,0 -3.791,-0.667 -5.095,-1.868 -1.42,-1.302 -2.167,-3.138 -2.167,-5.312 0,-2.174 0.747,-4.014 2.167,-5.316 1.304,-1.208 3.116,-1.87 5.095,-1.87 1.974,0 3.58,0.77 4.918,2.352 L 1.609,-1.947 0,0"
             fill="#004685"
             id="path1" />
        </g>
      </g>
      <path
         d="m 388.251,65.462 h 2.842 v 13.876 h -2.842 V 65.462"
         fill="#004685"
         id="path2" />
      <g
         clip-path="url(#clipPath52)"
         id="g4">
        <g
           transform="translate(402.22749,68.4785)"
           id="g3">
          <path
             d="m 0,0 c -0.759,-0.462 -1.464,-0.695 -2.098,-0.695 -0.919,0 -1.335,0.486 -1.335,1.566 v 7.363 h 2.897 v 2.612 h -2.897 v 4.318 L -6.218,13.672 V 10.846 H -8.622 V 8.234 h 2.404 V 0.402 c 0,-2.133 1.264,-3.593 3.152,-3.631 1.281,-0.025 2.053,0.357 2.521,0.637 l 0.03,0.019 L 0.168,0.103 0,0"
             fill="#004685"
             id="path3" />
        </g>
      </g>
      <path
         d="m 404.58,65.462 h 2.846 V 79.338 H 404.58 V 65.462"
         fill="#004685"
         id="path4" />
      <g
         transform="translate(409.08369,81.770294)"
         id="g5">
        <path
           fill="#ee1c25"
           d="m 0,0 c -2.597,3.678 -6.909,5.872 -11.296,5.872 -4.386,0 -8.699,-2.194 -11.291,-5.872 l -0.134,-0.189 h 3.27 l 0.036,0.039 c 2.225,2.298 5.131,3.512 8.119,3.512 2.988,0 5.892,-1.214 8.122,-3.512 l 0.036,-0.039 H 0.13 L 0,0"
           id="path5" />
      </g>
    </g>
  </g>
</svg>
