<?xml version="1.0" encoding="UTF-8" standalone="no"?>
<!-- Generator: Adobe Illustrator 19.2.1, SVG Export Plug-In . SVG Version: 6.00 Build 0)  -->

<svg
   version="1.1"
   id="layer"
   x="0px"
   y="0px"
   viewBox="0 0 599.5 324.79999"
   xml:space="preserve"
   sodipodi:docname="hdr_logo.svg"
   width="599.5"
   height="324.79999"
   inkscape:version="1.3.2 (091e20e, 2023-11-25, custom)"
   xmlns:inkscape="http://www.inkscape.org/namespaces/inkscape"
   xmlns:sodipodi="http://sodipodi.sourceforge.net/DTD/sodipodi-0.dtd"
   xmlns="http://www.w3.org/2000/svg"
   xmlns:svg="http://www.w3.org/2000/svg"><defs
   id="defs2">
	

		
		<defs
   id="defs1">
			<filter
   id="Adobe_OpacityMaskFilter"
   filterUnits="userSpaceOnUse"
   x="21.5"
   y="158.60001"
   width="600"
   height="325.20001">
				<feColorMatrix
   type="matrix"
   values="1 0 0 0 0  0 1 0 0 0  0 0 1 0 0  0 0 0 1 0"
   id="feColorMatrix1" />
			</filter>
		</defs>
		<mask
   maskUnits="userSpaceOnUse"
   x="21.5"
   y="158.6"
   width="600"
   height="325.2"
   id="mask-2_1_">
			<g
   class="st0"
   id="g1">
				<polygon
   id="path-1_1_"
   class="st1"
   points="21.9,158.6 21.9,483.4 621.5,483.4 621.5,158.6 " />
			</g>
		</mask>
		
	</defs><sodipodi:namedview
   id="namedview1"
   pagecolor="#505050"
   bordercolor="#ffffff"
   borderopacity="1"
   inkscape:showpageshadow="0"
   inkscape:pageopacity="0"
   inkscape:pagecheckerboard="1"
   inkscape:deskcolor="#505050"
   inkscape:zoom="1.243865"
   inkscape:cx="303.89149"
   inkscape:cy="167.62269"
   inkscape:window-width="1920"
   inkscape:window-height="1046"
   inkscape:window-x="-11"
   inkscape:window-y="-11"
   inkscape:window-maximized="1"
   inkscape:current-layer="layer" />
<style
   type="text/css"
   id="style1">
	.st0{filter:url(#Adobe_OpacityMaskFilter);}
	.st1{fill:#FFFFFF;}
	.st2{mask:url(#mask-2_1_);fill:#4E504F;}
</style>
<g
   id="Clip-2"
   transform="translate(-21.9,-158.6)">
		</g><path
   id="Fill-1"
   class="st2"
   d="m 420,316.8 v 0 c -0.2,91.5 -67.9,158.3 -161.2,158.3 h -38.1 v -59.4 h 38.1 c 59.2,0 100.6,-40.9 100.7,-99 C 359.4,258.5 318,218 258.8,218 h -38.1 v -59.4 h 38.1 c 93.3,0 161,66.4 161.2,157.9 v 0 z m -0.1,-101.3 h 72.8 c 22,0 36.8,4.5 47.5,14.9 9.8,9.4 14.8,21.9 14.8,35.9 0,32 -28.1,51 -59.4,51 h -18.2 l -21.3,45.2 119,121.2 46.3,-38.2 -84.3,-83.5 c 46.6,-8.5 78.4,-50.4 78.4,-94.4 0,-33 -9.5,-58.4 -33.5,-80.5 -24.8,-22.9 -52.4,-28.5 -93.9,-28.5 H 419.9 Z M 222.4,285.1 H 86.8 V 158.6 H 21.5 V 475.1 H 86.8 V 348.4 h 135.6 z"
   mask="url(#mask-2_1_)"
   transform="translate(-21.9,-158.6)" />
</svg>
