<?xml version="1.0" encoding="UTF-8" standalone="no"?>
<svg
   clip-rule="evenodd"
   fill-rule="evenodd"
   stroke-linejoin="round"
   stroke-miterlimit="2"
   viewBox="0 0 499.99875 81.738281"
   version="1.1"
   id="svg6"
   sodipodi:docname="jabil_logo.svg"
   width="499.99875"
   height="81.738281"
   inkscape:version="1.3.2 (091e20e, 2023-11-25, custom)"
   xmlns:inkscape="http://www.inkscape.org/namespaces/inkscape"
   xmlns:sodipodi="http://sodipodi.sourceforge.net/DTD/sodipodi-0.dtd"
   xmlns="http://www.w3.org/2000/svg"
   xmlns:svg="http://www.w3.org/2000/svg">
  <defs
     id="defs6" />
  <sodipodi:namedview
     id="namedview6"
     pagecolor="#505050"
     bordercolor="#ffffff"
     borderopacity="1"
     inkscape:showpageshadow="0"
     inkscape:pageopacity="0"
     inkscape:pagecheckerboard="1"
     inkscape:deskcolor="#505050"
     inkscape:zoom="2.0275"
     inkscape:cx="250.06165"
     inkscape:cy="42.17016"
     inkscape:window-width="1920"
     inkscape:window-height="1046"
     inkscape:window-x="-11"
     inkscape:window-y="-11"
     inkscape:window-maximized="1"
     inkscape:current-layer="svg6" />
  <g
     transform="matrix(1.22273,0,0,1.22273,-9.4076846,-11.118284)"
     id="g6">
    <g
       fill="#005288"
       id="g5">
      <g
         fill-rule="nonzero"
         id="g3">
        <path
           d="M 24.261,75.942 C 17.77,75.942 13.383,74.837 11.11,72.624 8.833,70.415 7.694,66.257 7.694,60.145 V 46.275 L 23.376,43.297 V 63.38 H 53.912 V 9.093 h 15.589 v 51.051 c 0,6.112 -1.152,10.271 -3.453,12.479 -2.301,2.213 -6.686,3.316 -13.147,3.316 z"
           id="path1" />
        <path
           d="M 85.816,75.942 123.602,9.094 h 14.979 l 38.293,66.848 h -17.44 l -11.738,-21.81 -38.438,7.108 -2.125,3.845 -5.835,10.856 z m 29.888,-26.684 h 29.258 L 130.554,22.061 Z"
           id="path2" />
        <path
           d="M 198.382,75.942 V 9.094 h 57.229 c 5.285,0 9.109,1.038 11.479,3.106 2.37,2.069 3.551,5.364 3.551,9.883 v 8.121 c 0,3.198 -0.988,5.751 -2.963,7.666 -1.979,1.914 -4.814,3.104 -8.514,3.565 3.84,0.507 6.806,1.88 8.895,4.115 2.09,2.241 3.133,5.152 3.133,8.743 v 8.559 c 0,4.428 -1.631,7.715 -4.889,9.863 -3.259,2.15 -8.211,3.227 -14.855,3.227 z m 50.73,-55.936 H 213.696 V 35.87 h 35.416 c 2.693,0 4.556,-0.355 5.586,-1.072 1.031,-0.711 1.547,-1.949 1.547,-3.714 v -6.293 c 0,-1.719 -0.516,-2.949 -1.547,-3.685 -1.033,-0.733 -2.893,-1.1 -5.586,-1.1 m 0,26.868 H 213.696 V 63.93 h 35.416 c 2.979,0 4.986,-0.441 6.029,-1.33 1.041,-0.889 1.562,-2.456 1.562,-4.694 v -5.072 c 0,-2.241 -0.521,-3.794 -1.562,-4.66 -1.043,-0.867 -3.052,-1.3 -6.029,-1.3"
           id="path3" />
      </g>
      <path
         d="m 301.176,9.094 h 15.59 v 66.848 h -15.59 z"
         id="path4" />
      <path
         d="m 595.139,322.623 h -65.748 v -66.848 h 15.589 v 54.286 h 50.159 z"
         fill-rule="nonzero"
         transform="translate(-178.525,-246.681)"
         id="path5" />
    </g>
    <path
       d="m 383.263,286.462 -83.853,-0.038 -13.754,25.342 z"
       fill="#008a5e"
       fill-rule="nonzero"
       transform="translate(-178.525,-246.681)"
       id="path6" />
  </g>
</svg>
