<svg xmlns="http://www.w3.org/2000/svg" width="150" height="21.967" viewBox="0 0 39.687 5.812" fill="#253561" fill-rule="evenodd" xmlns:v="https://vecta.io/nano"><path d="M18.317 5.078c0 .529-.169.709-.672.709-.265 0-.564-.016-.759-.034V.021h1.394l2.437 3.641a2.36 2.36 0 0 1-.032-.452V.035h1.434v5.718a10.29 10.29 0 0 1-.915.034.93.93 0 0 1-.966-.529l-1.953-2.963a2.83 2.83 0 0 1 .032.566v2.222zM1.831.024C.495.085 0 .865 0 1.723S.529 3.44 1.892 3.469h1.22a.55.55 0 1 1 0 1.098H.961c-.696 0-.9.196-.9.865v.355l3.201.019c1.376-.019 1.934-.908 1.934-1.82S4.615 2.18 3.265 2.157H1.979c-.258-.026-.454-.244-.454-.503s.196-.476.454-.503c.209-.013 1.929 0 1.929 0 .701 0 .9-.198.9-.865V.021c-.392 0-1.955-.048-2.977 0m22.881.003c-1.339.061-1.831.844-1.831 1.699s.542 1.717 1.892 1.746h1.22a.55.55 0 1 1 0 1.098h-2.151c-.701 0-.9.198-.9.865v.355l3.201.019c1.376-.019 1.934-.908 1.934-1.82s-.582-1.804-1.931-1.828H24.86c-.258-.026-.454-.244-.454-.503s.196-.476.454-.503c.209-.013 1.929 0 1.929 0 .701 0 .9-.198.9-.865V.021c-.392 0-1.955-.048-2.977 0M14.304 3.506l-.709-2.244-.706 2.244c.018-.014.041-.021.064-.018h1.286c.024-.003.047.004.066.019zm2.413 2.246l-.905.034c-.476 0-.81-.064-.947-.5l-.198-.627h-2.14l-.196.632c-.138.439-.439.489-.929.5H10.14c-.45 0-.698-.108-.908-.352L7.379 3.292a.23.23 0 0 1-.064-.116v1.913c0 .529-.169.709-.675.709-.265 0-.691-.016-.889-.034V.021h1.561v2.601c.003-.058.025-.114.064-.159L9.261.021h1.852L8.731 2.799l1.984 2.156c.023.025.039.055.048.087.003-.031.01-.061.021-.09L12.766.021h1.656zm20.558-2.246l-.709-2.244-.706 2.244c.018-.014.041-.021.064-.018h1.286c.024-.003.047.004.066.019zm2.413 2.246l-.905.034c-.479 0-.81-.064-.947-.5l-.198-.627H35.5l-.198.632c-.138.439-.439.489-.929.5H33.11c-.45 0-.698-.108-.908-.352L30.35 3.291a.23.23 0 0 1-.064-.124V5.08c0 .529-.169.709-.675.709-.265 0-.691-.016-.889-.034V.021h1.561v2.601c.003-.058.025-.114.064-.159L32.234.021h1.852l-2.381 2.775 1.984 2.156c.023.025.039.055.048.087a.33.33 0 0 1 .021-.09l1.974-4.93h1.656z"/></svg>