<svg xmlns="http://www.w3.org/2000/svg" width="86.142" height="56.693" fill="#f14b22" xmlns:v="https://vecta.io/nano"><path d="M86.142.132V9.48H70.66l.029 23.6H60.147l-.004-23.6H49.335c-3.408 7.789-6.222 15.811-9.63 23.6-2.148.078-4.196 0-6.26 0l-6.894-18.05c-.097.195-4.649 12.305-6.791 18.05h-6.148L.855 0l9.374.006 6.39 14.146c0-.194 4.054-9.669 6-14.146h8.401l6.34 14.439L43.493.132h42.649M0 35.731h85.882v9.056H0v-9.056m4.406 18.136h.024l1.847-5.768h1.07l1.92 5.768h.024l1.822-5.657h1.895L9.87 56.674H8.54l-1.846-5.426H6.67l-1.748 5.426H3.594L.64 48.209h1.895l1.871 5.657m13.283-1.549v-2.724h1.508v6.916h-1.508v-3.092h-2.79v3.092h-1.507v-6.916h1.507v2.724h2.79m4.122 4.192h-1.508v-6.917h1.508v6.917m3.611 0h-1.507v-5.742h-1.559v-1.174h4.626v1.174h-1.559v5.742m3.62 0h-1.508v-6.917h1.508v6.917"/><path d="M30.141 49.409h1.087l4.071 4.835h.021v-4.651h1.508v7.054h-1.087l-4.071-4.834h-.021v4.696h-1.508V49.41m14.616 3.421v.174c0 1.955-1.118 3.688-3.518 3.688a3.56 3.56 0 0 1-3.682-3.614c0-1.972 1.466-3.67 3.774-3.67 1.314 0 2.462.596 3.057 1.651l-1.333.642a1.97 1.97 0 0 0-1.764-1.101c-1.457 0-2.175 1.33-2.175 2.477s.728 2.421 2.185 2.421c.943 0 1.733-.733 1.763-1.569h-1.641v-1.1h3.334m3.728.784h-3.003v-1.267h3.003v1.267m4.209 2.895h-1.81v-6.891h-1.871v-1.409h5.551v1.409h-1.87v6.891m2.384-6.916h1.507v3.871c0 .853.082 2.055 1.364 2.055s1.365-1.202 1.365-2.055v-3.871h1.508v4.137c0 1.687-.799 2.963-2.872 2.963s-2.871-1.276-2.871-2.963v-4.137m8.317 3.183h.195c.831 0 1.415-.221 1.415-1.065 0-.853-.604-1.017-1.405-1.017h-.204zm3.723 3.733h-1.826l-1.878-2.789h-.02v2.789h-1.509v-6.917h2.042c1.529 0 2.585.606 2.585 2.083 0 .88-.544 1.761-1.579 1.917l2.184 2.917m.493-7.1h1.088l4.071 4.835h.02v-4.651h1.508v7.054h-1.087l-4.072-4.834h-.02v4.696h-1.508V49.41m9.293 1.357v1.522h2.401v1.174h-2.401v1.871h2.493v1.174h-4.001v-6.916h4.001v1.174h-2.493m5.006 2.01h.194c.831 0 1.415-.221 1.415-1.065 0-.853-.605-1.017-1.404-1.017h-.206zm3.722 3.733h-1.825L81.93 53.72h-.02v2.789h-1.508v-6.917h2.041c1.529 0 2.585.606 2.585 2.083 0 .88-.543 1.761-1.58 1.917l2.184 2.917"/></svg>